<?xml version="1.0" standalone="no"?>
<!DOCTYPE svg PUBLIC "-//W3C//DTD SVG 20010904//EN"
 "http://www.w3.org/TR/2001/REC-SVG-20010904/DTD/svg10.dtd">
<svg version="1.0" xmlns="http://www.w3.org/2000/svg"
 width="768.000000pt" height="768.000000pt" viewBox="0 0 768.000000 768.000000"
 preserveAspectRatio="xMidYMid meet">
<metadata>
Created by potrace 1.14, written by Peter Selinger 2001-2017
</metadata>
<g transform="translate(0.000000,768.000000) scale(0.100000,-0.100000)"
fill="#000000" stroke="none">
<path d="M3800 7658 c-19 -11 -55 -32 -80 -46 -25 -14 -57 -33 -72 -43 -14
-11 -29 -19 -33 -19 -3 0 -29 -15 -58 -33 -29 -18 -63 -38 -77 -45 -14 -7 -34
-18 -45 -25 -11 -7 -78 -46 -150 -87 -71 -41 -138 -79 -147 -85 -9 -5 -29 -17
-45 -26 -112 -63 -343 -196 -363 -209 -8 -6 -22 -13 -30 -17 -8 -4 -71 -40
-139 -80 -67 -40 -125 -73 -127 -73 -2 0 -25 -13 -51 -29 -93 -56 -138 -82
-165 -94 -16 -6 -28 -15 -28 -19 0 -4 -6 -8 -13 -8 -7 0 -23 -9 -35 -20 -12
-12 -22 -18 -22 -15 0 4 -15 -2 -32 -13 -106 -64 -280 -162 -289 -162 -5 0 -9
-4 -9 -9 0 -5 -12 -14 -27 -21 -47 -19 -73 -34 -73 -42 0 -5 -5 -8 -11 -8 -6
0 -38 -16 -70 -36 -32 -19 -62 -35 -66 -36 -4 0 -19 -9 -32 -19 -13 -11 -30
-19 -37 -19 -8 0 -14 -4 -14 -9 0 -5 -8 -11 -17 -14 -17 -6 -81 -42 -130 -73
-12 -8 -42 -25 -65 -38 -24 -13 -141 -81 -262 -150 -120 -69 -221 -126 -224
-126 -3 0 -13 -6 -21 -14 -9 -8 -38 -26 -66 -41 -70 -37 -119 -66 -128 -75
-11 -10 -11 -3801 0 -3811 9 -8 213 -126 258 -149 17 -8 32 -18 35 -21 3 -3
97 -58 210 -123 113 -64 212 -121 220 -126 101 -61 313 -180 320 -180 6 0 10
-4 10 -10 0 -5 4 -10 10 -10 5 0 71 -36 146 -80 75 -44 140 -80 144 -80 4 0
18 -8 31 -19 13 -10 47 -30 74 -45 28 -15 57 -31 65 -36 60 -38 172 -100 180
-100 6 0 10 -4 10 -10 0 -5 4 -10 10 -10 5 0 44 -21 87 -46 43 -25 107 -62
143 -82 36 -19 72 -41 81 -48 8 -8 18 -14 22 -14 4 0 39 -19 79 -43 40 -24 80
-46 88 -50 8 -4 33 -19 55 -32 22 -14 54 -32 70 -41 17 -8 44 -23 60 -34 17
-10 41 -25 55 -33 14 -7 42 -23 62 -35 21 -12 55 -32 75 -43 21 -12 94 -54
163 -94 69 -40 216 -125 327 -188 l202 -116 40 22 c22 12 114 64 203 116 90
52 193 111 230 132 37 21 82 47 100 58 18 10 76 43 128 73 52 30 140 81 195
113 55 32 120 69 145 83 25 14 61 35 80 47 19 12 42 25 50 28 8 4 38 21 65 37
28 17 57 34 65 37 8 4 17 9 20 12 3 4 16 12 30 19 53 28 91 50 230 132 8 5 49
28 90 52 41 23 82 47 91 53 9 5 38 22 65 36 27 15 85 48 129 74 44 27 95 56
113 66 17 11 49 29 70 40 20 12 55 32 77 44 22 13 81 46 130 75 50 29 104 60
120 70 17 9 50 29 75 44 25 14 70 40 100 56 30 17 62 35 70 40 8 6 83 49 165
96 83 48 168 97 190 110 22 13 51 29 65 36 14 7 27 15 30 19 3 3 20 12 38 20
17 8 32 17 32 21 0 5 6 8 13 8 6 0 22 8 35 18 l23 18 0 757 c0 417 -2 761 -5
765 -3 5 -1853 8 -1888 3 -3 -1 -5 -37 -5 -82 1 -44 -1 -86 -5 -92 -4 -6 -4
-15 -1 -21 4 -5 7 -60 7 -122 l1 -112 -45 -29 c-60 -38 -99 -60 -132 -73 -16
-7 -28 -16 -28 -21 0 -5 -9 -9 -19 -9 -11 0 -21 -4 -23 -8 -1 -4 -50 -34 -108
-67 -57 -33 -112 -64 -122 -70 -9 -5 -52 -30 -95 -55 -43 -24 -86 -49 -95 -55
-9 -5 -29 -17 -45 -26 -15 -8 -73 -42 -128 -74 -111 -64 -120 -70 -255 -146
-52 -29 -97 -56 -100 -59 -3 -3 -23 -15 -45 -27 -22 -11 -56 -30 -75 -42 -98
-57 -79 -58 -188 5 -53 31 -117 68 -142 82 -25 14 -61 35 -80 47 -19 12 -42
24 -50 28 -8 4 -33 18 -55 31 -22 14 -51 31 -65 39 -14 7 -41 23 -60 34 -283
162 -379 218 -400 233 -14 10 -29 19 -35 20 -5 2 -19 8 -30 15 -108 65 -286
165 -295 165 -5 0 -10 5 -10 10 0 6 -5 10 -11 10 -5 0 -25 10 -42 23 -29 19
-32 27 -31 64 1 24 4 50 8 58 3 8 2 15 -2 15 -4 0 -7 337 -7 749 0 412 2 748
4 745 2 -2 16 5 30 15 14 10 49 31 76 45 28 15 57 31 65 36 38 24 222 130 225
130 3 0 38 20 78 45 41 25 80 45 86 45 6 0 11 4 11 8 0 4 24 20 53 35 28 15
59 32 67 37 8 5 51 30 95 55 44 25 87 50 95 56 8 5 26 15 40 21 14 7 27 15 30
19 3 3 19 12 35 21 17 8 46 24 65 35 126 73 309 178 328 189 24 12 30 9 442
-229 19 -11 55 -31 80 -45 25 -14 124 -71 220 -127 96 -56 182 -105 190 -109
8 -4 32 -17 52 -29 94 -56 357 -208 395 -228 40 -21 64 -49 42 -49 -6 0 -7 -6
0 -17 5 -10 5 -26 0 -40 -4 -12 -5 -24 -1 -27 9 -5 7 -130 -2 -145 -4 -5 -3
-12 2 -15 4 -2 7 -41 5 -85 -2 -71 0 -81 15 -82 9 -1 437 -2 949 -3 l933 -1 0
75 c0 41 0 379 -1 750 0 371 0 683 0 692 0 16 -106 88 -130 88 -5 0 -9 4 -9 8
0 4 -16 14 -35 21 -19 7 -35 16 -35 21 0 5 -6 10 -13 12 -10 2 -318 176 -387
219 -8 5 -69 40 -135 78 -66 37 -144 82 -173 100 -29 17 -54 31 -56 31 -2 0
-76 43 -165 95 -90 52 -165 95 -167 95 -2 0 -32 18 -66 40 -35 22 -69 40 -75
40 -7 0 -13 5 -13 10 0 6 -6 10 -13 10 -7 0 -19 6 -25 13 -7 6 -16 12 -20 12
-4 0 -58 31 -120 68 -63 37 -115 67 -117 67 -2 0 -39 21 -82 46 -43 26 -98 58
-123 72 -25 14 -58 33 -75 43 -35 21 -164 95 -215 124 -19 11 -55 32 -80 46
-25 15 -61 36 -80 46 -66 38 -369 213 -402 233 -18 11 -40 23 -48 27 -8 4 -75
42 -149 85 -73 43 -135 78 -138 78 -3 0 -17 8 -31 19 -27 18 -121 72 -125 70
-1 0 -18 -10 -37 -21z"/>
</g>
</svg>
