<svg width="25" height="24" viewBox="0 0 25 24" fill="none" xmlns="http://www.w3.org/2000/svg">
<g id="phone-incoming/default">
<path id="Shape" d="M15.5 3V9H21.5" stroke="#999EAD" stroke-width="2" stroke-linecap="round" stroke-linejoin="round"/>
<path id="Shape_2" d="M22.5 2L15.5 9" stroke="#999EAD" stroke-width="2" stroke-linecap="round" stroke-linejoin="round"/>
<path id="Shape_3" fill-rule="evenodd" clip-rule="evenodd" d="M21.4999 17.9201V20.9201C21.5022 21.4832 21.267 22.0213 20.852 22.402C20.437 22.7827 19.8808 22.9708 19.3199 22.9201C16.2428 22.5857 13.2869 21.5342 10.6899 19.8501C8.27377 18.3148 6.22528 16.2663 4.68994 13.8501C2.99992 11.2413 1.94818 8.27109 1.61994 5.1801C1.56941 4.62097 1.75621 4.06635 2.13471 3.65172C2.5132 3.23709 3.04853 3.00063 3.60994 3.0001H6.60994C7.6138 2.99022 8.46944 3.72607 8.60994 4.7201C8.73656 5.68016 8.97139 6.62283 9.30994 7.5301C9.58468 8.26097 9.40896 9.0849 8.85994 9.6401L7.58994 10.9101C9.0135 13.4136 11.0864 15.4865 13.5899 16.9101L14.8599 15.6401C15.4151 15.0911 16.2391 14.9154 16.9699 15.1901C17.8772 15.5286 18.8199 15.7635 19.7799 15.8901C20.7855 16.032 21.5251 16.9049 21.4999 17.9201Z" stroke="#999EAD" stroke-width="2" stroke-linecap="round" stroke-linejoin="round"/>
</g>
</svg>
