<svg width="41" height="40" viewBox="0 0 41 40" fill="none" xmlns="http://www.w3.org/2000/svg">
<g id="56px / check">
<path id="Vector" d="M12.2745 20.7622C11.834 20.3978 11.2599 20.2001 10.6675 20.2087C10.075 20.2174 9.50804 20.4317 9.08025 20.8088C8.65247 21.1858 8.39551 21.6977 8.36094 22.2417C8.32636 22.7857 8.51672 23.3217 8.89383 23.742L14.1058 28.7731C14.324 28.9836 14.5862 29.1514 14.8767 29.2665C15.1671 29.3815 15.4799 29.4414 15.7961 29.4425C16.1107 29.4442 16.4224 29.3877 16.7128 29.2764C17.0032 29.1651 17.2663 29.0013 17.4865 28.7947L33.404 13.6798C33.6198 13.4756 33.7898 13.2344 33.9042 12.9698C34.0187 12.7052 34.0753 12.4225 34.071 12.1378C34.0666 11.8531 34.0013 11.5719 33.8788 11.3104C33.7563 11.0489 33.579 10.8121 33.3571 10.6136C33.1351 10.4152 32.8728 10.2588 32.5851 10.1536C32.2974 10.0483 31.99 9.9962 31.6805 10.0002C31.3709 10.0042 31.0652 10.0643 30.7809 10.1769C30.4965 10.2896 30.2391 10.4527 30.0233 10.6568L15.8196 24.1739L12.2745 20.7622Z" fill="#27AE60"/>
</g>
</svg>
