<svg width="23" height="24" viewBox="0 0 23 24" fill="none" xmlns="http://www.w3.org/2000/svg">
<path d="M11.5 0.853882C12.72 0.853882 13.89 1.3758 14.7527 2.30483C15.6154 3.23386 16.1 4.49389 16.1 5.80773C16.1 6.7118 15.8815 7.55396 15.479 8.28465H18.4C19.4925 8.28465 20.4125 9.11442 20.6425 10.2167C22.954 20.1367 23 20.3968 23 20.6693C23 21.3262 22.7577 21.9562 22.3263 22.4207C21.895 22.8852 21.31 23.1462 20.7 23.1462H2.3C1.69 23.1462 1.10499 22.8852 0.673654 22.4207C0.242321 21.9562 0 21.3262 0 20.6693C0 20.3968 0.0460002 20.1367 2.3575 10.2167C2.5875 9.11442 3.5075 8.28465 4.6 8.28465H7.521C7.10991 7.53464 6.8953 6.67864 6.9 5.80773C6.9 4.49389 7.38464 3.23386 8.24731 2.30483C9.10998 1.3758 10.28 0.853882 11.5 0.853882ZM11.5 3.3308C10.89 3.3308 10.305 3.59177 9.87365 4.05628C9.44232 4.52079 9.2 5.15081 9.2 5.80773C9.2 6.46465 9.44232 7.09466 9.87365 7.55918C10.305 8.02369 10.89 8.28465 11.5 8.28465C12.11 8.28465 12.695 8.02369 13.1263 7.55918C13.5577 7.09466 13.8 6.46465 13.8 5.80773C13.8 5.15081 13.5577 4.52079 13.1263 4.05628C12.695 3.59177 12.11 3.3308 11.5 3.3308ZM4.6 10.7616V20.6693H6.9V17.5731L8.05 18.8116V20.6693H10.35V18.1923L8.05 15.7154L10.35 13.2385V10.7616H8.05V12.6193L6.9 13.8577V10.7616H4.6ZM14.95 10.7616C13.6735 10.7616 12.65 11.8638 12.65 13.2385V18.1923C12.65 19.567 13.6735 20.6693 14.95 20.6693H18.4V14.477H16.1V18.1923H14.95V13.2385H18.4V10.7616H14.95Z" fill="#237648"/>
</svg>
