<svg width="34" height="35" viewBox="0 0 34 35" fill="none" xmlns="http://www.w3.org/2000/svg">
<g id="Group 873">
<circle id="Ellipse 29" cx="17" cy="17.5" r="17" fill="#2AA1DD"/>
<path id="Vector" d="M24.1616 10.5C24.1049 10.5 24.0401 10.5081 23.9834 10.5324L8.32613 16.4859C7.88064 16.656 7.89684 17.2797 8.34233 17.4336L11.9711 18.6567L14.1581 23.0388L14.1662 23.0469C14.2067 23.1279 14.2877 23.1765 14.3768 23.1765C14.4254 23.1765 14.4821 23.1603 14.5307 23.1198L16.58 21.3783L14.2877 19.6449L14.4659 21.9291L12.8216 18.519L21.5696 13.2621L14.2877 19.6368L19.9577 23.9379C20.144 24.0837 20.3627 24.1485 20.5814 24.1485C21.0269 24.1485 21.4643 23.8569 21.5858 23.3628L24.6476 11.1075C24.7286 10.7997 24.4694 10.5 24.1616 10.5Z" fill="white"/>
</g>
</svg>
