<svg width="65" height="14" viewBox="0 0 65 14" fill="none" xmlns="http://www.w3.org/2000/svg">
<g id="&#208;&#161;&#208;&#187;&#208;&#190;&#208;&#185; x0020 1">
<g id="2498000578272">
<path id="Vector" fill-rule="evenodd" clip-rule="evenodd" d="M6.30998 4.27407H4.00686L3.55768 8.62385H5.84152L6.30998 4.27407ZM7.07112 4.27407L6.60266 8.62385H9.36084L9.30259 9.27523H6.5436L6.07514 13.5303H5.31379L5.78225 9.27523H3.48035L3.03158 13.5303H2.27024L2.73849 9.27523H0L0.0580498 8.62385H2.79654L3.265 4.27407H0.507023L0.565072 3.62209H3.32427L3.69469 0.0957031H4.45583L4.08439 3.62209H6.36803L6.73845 0.0957031H7.49959L7.12937 3.62209H9.88857L9.82909 4.27407H7.07112Z" fill="#BCBCBC"/>
<path id="Vector_2" fill-rule="evenodd" clip-rule="evenodd" d="M13.6661 2.03102V11.6128H14.8764C15.56 11.6128 15.969 11.2683 15.969 10.31V3.33418C15.969 2.37604 15.56 2.03102 14.8764 2.03102H13.6661ZM11.5205 0.114746H14.9146C17.0616 0.114746 18.1159 1.28356 18.1159 3.43025V10.2139C18.1159 12.36 17.0616 13.5298 14.9146 13.5298H11.5205V0.114746Z" fill="#BCBCBC"/>
<path id="Vector_3" fill-rule="evenodd" clip-rule="evenodd" d="M19.48 0.114746H21.6268V13.5298H19.48V0.114746Z" fill="#BCBCBC"/>
<path id="Vector_4" fill-rule="evenodd" clip-rule="evenodd" d="M25.3338 5.76769H28.2807V7.68396H25.3338V11.6128H29.0416V13.5298H23.1865V0.114746H29.0416V2.03102H25.3338V5.76769Z" fill="#BCBCBC"/>
<path id="Vector_5" fill-rule="evenodd" clip-rule="evenodd" d="M36.3189 0.114746V1.99275L32.2402 11.6128H36.3189V13.5298H30.0352V11.6516L34.1139 2.03102H30.23V0.114746H36.3189Z" fill="#BCBCBC"/>
<path id="Vector_6" fill-rule="evenodd" clip-rule="evenodd" d="M39.9468 13.5298V0.919803H37.1558V0.114746H43.6151V0.919803H40.8446V13.5298H39.9468Z" fill="#BCBCBC"/>
<path id="Vector_7" fill-rule="evenodd" clip-rule="evenodd" d="M49.4095 6.32359V7.12865H45.6823V12.7246H50.1712V13.5298H44.7852V0.114746H50.1712V0.919803H45.6823V6.32359H49.4095Z" fill="#BCBCBC"/>
<path id="Vector_8" fill-rule="evenodd" clip-rule="evenodd" d="M57.4685 3.39145V4.50346H56.6097V3.33444C56.6097 1.89694 56.043 0.80446 54.5412 0.80446C53.0378 0.80446 52.4729 1.89714 52.4729 3.33444V10.3103C52.4729 11.7472 53.0378 12.8201 54.5412 12.8201C56.043 12.8201 56.6097 11.7472 56.6097 10.3103V8.7197H57.4685V10.2525C57.4685 12.1885 56.6097 13.6447 54.5215 13.6447C52.4327 13.6447 51.5752 12.1885 51.5752 10.2525L51.5754 3.39145C51.5754 1.45644 52.4325 0 54.5215 0C56.6097 0 57.4685 1.45644 57.4685 3.39145Z" fill="#BCBCBC"/>
<path id="Vector_9" fill-rule="evenodd" clip-rule="evenodd" d="M59.8273 7.22413V13.5298H58.9302V0.114746H59.8273V6.41967H64.0822V0.114746H64.9998V13.5298H64.0822V7.22413H59.8273Z" fill="#BCBCBC"/>
</g>
</g>
</svg>
