<svg xmlns="http://www.w3.org/2000/svg" xmlns:xlink="http://www.w3.org/1999/xlink"><defs><style>
    .sprite-symbol-usage {display: none;}
    .sprite-symbol-usage:target {display: inline;}
  </style><symbol viewBox="0 0 24 24" fill="none" id="icon-arrow-pointer">
<g id="icon-arrow-pointer_Icon/Feather Icon">
<path id="icon-arrow-pointer_Vector" d="M5 12H19" stroke="#F7F8FA" stroke-width="2" stroke-linecap="round" stroke-linejoin="round" />
<path id="icon-arrow-pointer_Vector_2" d="M12 5L19 12L12 19" stroke="#F7F8FA" stroke-width="2" stroke-linecap="round" stroke-linejoin="round" />
</g>
</symbol><symbol viewBox="0 0 24 24" fill="none" id="icon-calendar">
<path d="M19 4H5C4.44772 4 4 4.44772 4 5V19C4 19.5523 4.44772 20 5 20H19C19.5523 20 20 19.5523 20 19V5C20 4.44772 19.5523 4 19 4Z" stroke="#237648" stroke-width="2" stroke-linecap="round" stroke-linejoin="round" />
<path d="M7 4V2M17 4V2" stroke="#237648" stroke-width="2" stroke-linecap="round" stroke-linejoin="round" />
<path d="M7 11H17" stroke="#237648" stroke-width="2" stroke-linecap="round" stroke-linejoin="round" />
<path d="M7 15H14" stroke="#237648" stroke-width="2" stroke-linecap="round" stroke-linejoin="round" />
<path d="M19 5H5V8H19V5Z" fill="#237648" />
</symbol><symbol viewBox="0 0 41 40" fill="none" id="icon-check">
<g id="icon-check_56px / check">
<path id="icon-check_Vector" d="M12.2745 20.7622C11.834 20.3978 11.2599 20.2001 10.6675 20.2087C10.075 20.2174 9.50804 20.4317 9.08025 20.8088C8.65247 21.1858 8.39551 21.6977 8.36094 22.2417C8.32636 22.7857 8.51672 23.3217 8.89383 23.742L14.1058 28.7731C14.324 28.9836 14.5862 29.1514 14.8767 29.2665C15.1671 29.3815 15.4799 29.4414 15.7961 29.4425C16.1107 29.4442 16.4224 29.3877 16.7128 29.2764C17.0032 29.1651 17.2663 29.0013 17.4865 28.7947L33.404 13.6798C33.6198 13.4756 33.7898 13.2344 33.9042 12.9698C34.0187 12.7052 34.0753 12.4225 34.071 12.1378C34.0666 11.8531 34.0013 11.5719 33.8788 11.3104C33.7563 11.0489 33.579 10.8121 33.3571 10.6136C33.1351 10.4152 32.8728 10.2588 32.5851 10.1536C32.2974 10.0483 31.99 9.9962 31.6805 10.0002C31.3709 10.0042 31.0652 10.0643 30.7809 10.1769C30.4965 10.2896 30.2391 10.4527 30.0233 10.6568L15.8196 24.1739L12.2745 20.7622Z" fill="#27AE60" />
</g>
</symbol><symbol viewBox="0 0 24 24" fill="none" id="icon-close">
<g id="icon-close_24px / close">
<path id="icon-close_Union" fill-rule="evenodd" clip-rule="evenodd" d="M6.3352 16.0462C5.88827 16.4931 5.88827 17.2178 6.3352 17.6647C6.78214 18.1116 7.50677 18.1116 7.9537 17.6647L12 13.6184L16.0465 17.6648C16.4935 18.1118 17.2181 18.1118 17.665 17.6648C18.112 17.2179 18.112 16.4933 17.665 16.0463L13.6185 11.9999L17.6647 7.9537C18.1116 7.50676 18.1116 6.78214 17.6647 6.3352C17.2178 5.88827 16.4931 5.88827 16.0462 6.3352L12 10.3814L7.95403 6.33536C7.5071 5.88842 6.78247 5.88842 6.33553 6.33536C5.8886 6.78229 5.8886 7.50692 6.33553 7.95385L10.3815 11.9999L6.3352 16.0462Z" fill="#2B2D33" />
</g>
</symbol><symbol viewBox="0 0 65 14" fill="none" id="icon-diez">
<g id="icon-diez_&#208;&#161;&#208;&#187;&#208;&#190;&#208;&#185; x0020 1">
<g id="icon-diez_2498000578272">
<path id="icon-diez_Vector" fill-rule="evenodd" clip-rule="evenodd" d="M6.30998 4.27407H4.00686L3.55768 8.62385H5.84152L6.30998 4.27407ZM7.07112 4.27407L6.60266 8.62385H9.36084L9.30259 9.27523H6.5436L6.07514 13.5303H5.31379L5.78225 9.27523H3.48035L3.03158 13.5303H2.27024L2.73849 9.27523H0L0.0580498 8.62385H2.79654L3.265 4.27407H0.507023L0.565072 3.62209H3.32427L3.69469 0.0957031H4.45583L4.08439 3.62209H6.36803L6.73845 0.0957031H7.49959L7.12937 3.62209H9.88857L9.82909 4.27407H7.07112Z" fill="#BCBCBC" />
<path id="icon-diez_Vector_2" fill-rule="evenodd" clip-rule="evenodd" d="M13.6661 2.03102V11.6128H14.8764C15.56 11.6128 15.969 11.2683 15.969 10.31V3.33418C15.969 2.37604 15.56 2.03102 14.8764 2.03102H13.6661ZM11.5205 0.114746H14.9146C17.0616 0.114746 18.1159 1.28356 18.1159 3.43025V10.2139C18.1159 12.36 17.0616 13.5298 14.9146 13.5298H11.5205V0.114746Z" fill="#BCBCBC" />
<path id="icon-diez_Vector_3" fill-rule="evenodd" clip-rule="evenodd" d="M19.48 0.114746H21.6268V13.5298H19.48V0.114746Z" fill="#BCBCBC" />
<path id="icon-diez_Vector_4" fill-rule="evenodd" clip-rule="evenodd" d="M25.3338 5.76769H28.2807V7.68396H25.3338V11.6128H29.0416V13.5298H23.1865V0.114746H29.0416V2.03102H25.3338V5.76769Z" fill="#BCBCBC" />
<path id="icon-diez_Vector_5" fill-rule="evenodd" clip-rule="evenodd" d="M36.3189 0.114746V1.99275L32.2402 11.6128H36.3189V13.5298H30.0352V11.6516L34.1139 2.03102H30.23V0.114746H36.3189Z" fill="#BCBCBC" />
<path id="icon-diez_Vector_6" fill-rule="evenodd" clip-rule="evenodd" d="M39.9468 13.5298V0.919803H37.1558V0.114746H43.6151V0.919803H40.8446V13.5298H39.9468Z" fill="#BCBCBC" />
<path id="icon-diez_Vector_7" fill-rule="evenodd" clip-rule="evenodd" d="M49.4095 6.32359V7.12865H45.6823V12.7246H50.1712V13.5298H44.7852V0.114746H50.1712V0.919803H45.6823V6.32359H49.4095Z" fill="#BCBCBC" />
<path id="icon-diez_Vector_8" fill-rule="evenodd" clip-rule="evenodd" d="M57.4685 3.39145V4.50346H56.6097V3.33444C56.6097 1.89694 56.043 0.80446 54.5412 0.80446C53.0378 0.80446 52.4729 1.89714 52.4729 3.33444V10.3103C52.4729 11.7472 53.0378 12.8201 54.5412 12.8201C56.043 12.8201 56.6097 11.7472 56.6097 10.3103V8.7197H57.4685V10.2525C57.4685 12.1885 56.6097 13.6447 54.5215 13.6447C52.4327 13.6447 51.5752 12.1885 51.5752 10.2525L51.5754 3.39145C51.5754 1.45644 52.4325 0 54.5215 0C56.6097 0 57.4685 1.45644 57.4685 3.39145Z" fill="#BCBCBC" />
<path id="icon-diez_Vector_9" fill-rule="evenodd" clip-rule="evenodd" d="M59.8273 7.22413V13.5298H58.9302V0.114746H59.8273V6.41967H64.0822V0.114746H64.9998V13.5298H64.0822V7.22413H59.8273Z" fill="#BCBCBC" />
</g>
</g>
</symbol><symbol viewBox="0 0 25 24" fill="none" id="icon-phone">
<g id="icon-phone_phone-incoming/default">
<path id="icon-phone_Shape" d="M15.5 3V9H21.5" stroke="#999EAD" stroke-width="2" stroke-linecap="round" stroke-linejoin="round" />
<path id="icon-phone_Shape_2" d="M22.5 2L15.5 9" stroke="#999EAD" stroke-width="2" stroke-linecap="round" stroke-linejoin="round" />
<path id="icon-phone_Shape_3" fill-rule="evenodd" clip-rule="evenodd" d="M21.4999 17.9201V20.9201C21.5022 21.4832 21.267 22.0213 20.852 22.402C20.437 22.7827 19.8808 22.9708 19.3199 22.9201C16.2428 22.5857 13.2869 21.5342 10.6899 19.8501C8.27377 18.3148 6.22528 16.2663 4.68994 13.8501C2.99992 11.2413 1.94818 8.27109 1.61994 5.1801C1.56941 4.62097 1.75621 4.06635 2.13471 3.65172C2.5132 3.23709 3.04853 3.00063 3.60994 3.0001H6.60994C7.6138 2.99022 8.46944 3.72607 8.60994 4.7201C8.73656 5.68016 8.97139 6.62283 9.30994 7.5301C9.58468 8.26097 9.40896 9.0849 8.85994 9.6401L7.58994 10.9101C9.0135 13.4136 11.0864 15.4865 13.5899 16.9101L14.8599 15.6401C15.4151 15.0911 16.2391 14.9154 16.9699 15.1901C17.8772 15.5286 18.8199 15.7635 19.7799 15.8901C20.7855 16.032 21.5251 16.9049 21.4999 17.9201Z" stroke="#999EAD" stroke-width="2" stroke-linecap="round" stroke-linejoin="round" />
</g>
</symbol><symbol viewBox="0 0 34 35" fill="none" id="icon-telegram">
<g id="icon-telegram_Group 873">
<circle id="icon-telegram_Ellipse 29" cx="17" cy="17.5" r="17" fill="#2AA1DD" />
<path id="icon-telegram_Vector" d="M24.1616 10.5C24.1049 10.5 24.0401 10.5081 23.9834 10.5324L8.32613 16.4859C7.88064 16.656 7.89684 17.2797 8.34233 17.4336L11.9711 18.6567L14.1581 23.0388L14.1662 23.0469C14.2067 23.1279 14.2877 23.1765 14.3768 23.1765C14.4254 23.1765 14.4821 23.1603 14.5307 23.1198L16.58 21.3783L14.2877 19.6449L14.4659 21.9291L12.8216 18.519L21.5696 13.2621L14.2877 19.6368L19.9577 23.9379C20.144 24.0837 20.3627 24.1485 20.5814 24.1485C21.0269 24.1485 21.4643 23.8569 21.5858 23.3628L24.6476 11.1075C24.7286 10.7997 24.4694 10.5 24.1616 10.5Z" fill="white" />
</g>
</symbol><symbol viewBox="0 0 23 24" fill="none" id="icon-weight">
<path d="M11.5 0.853882C12.72 0.853882 13.89 1.3758 14.7527 2.30483C15.6154 3.23386 16.1 4.49389 16.1 5.80773C16.1 6.7118 15.8815 7.55396 15.479 8.28465H18.4C19.4925 8.28465 20.4125 9.11442 20.6425 10.2167C22.954 20.1367 23 20.3968 23 20.6693C23 21.3262 22.7577 21.9562 22.3263 22.4207C21.895 22.8852 21.31 23.1462 20.7 23.1462H2.3C1.69 23.1462 1.10499 22.8852 0.673654 22.4207C0.242321 21.9562 0 21.3262 0 20.6693C0 20.3968 0.0460002 20.1367 2.3575 10.2167C2.5875 9.11442 3.5075 8.28465 4.6 8.28465H7.521C7.10991 7.53464 6.8953 6.67864 6.9 5.80773C6.9 4.49389 7.38464 3.23386 8.24731 2.30483C9.10998 1.3758 10.28 0.853882 11.5 0.853882ZM11.5 3.3308C10.89 3.3308 10.305 3.59177 9.87365 4.05628C9.44232 4.52079 9.2 5.15081 9.2 5.80773C9.2 6.46465 9.44232 7.09466 9.87365 7.55918C10.305 8.02369 10.89 8.28465 11.5 8.28465C12.11 8.28465 12.695 8.02369 13.1263 7.55918C13.5577 7.09466 13.8 6.46465 13.8 5.80773C13.8 5.15081 13.5577 4.52079 13.1263 4.05628C12.695 3.59177 12.11 3.3308 11.5 3.3308ZM4.6 10.7616V20.6693H6.9V17.5731L8.05 18.8116V20.6693H10.35V18.1923L8.05 15.7154L10.35 13.2385V10.7616H8.05V12.6193L6.9 13.8577V10.7616H4.6ZM14.95 10.7616C13.6735 10.7616 12.65 11.8638 12.65 13.2385V18.1923C12.65 19.567 13.6735 20.6693 14.95 20.6693H18.4V14.477H16.1V18.1923H14.95V13.2385H18.4V10.7616H14.95Z" fill="#237648" />
</symbol></defs><use id="icon-arrow-pointer-usage" xlink:href="#icon-arrow-pointer" class="sprite-symbol-usage" /><use id="icon-calendar-usage" xlink:href="#icon-calendar" class="sprite-symbol-usage" /><use id="icon-check-usage" xlink:href="#icon-check" class="sprite-symbol-usage" /><use id="icon-close-usage" xlink:href="#icon-close" class="sprite-symbol-usage" /><use id="icon-diez-usage" xlink:href="#icon-diez" class="sprite-symbol-usage" /><use id="icon-phone-usage" xlink:href="#icon-phone" class="sprite-symbol-usage" /><use id="icon-telegram-usage" xlink:href="#icon-telegram" class="sprite-symbol-usage" /><use id="icon-weight-usage" xlink:href="#icon-weight" class="sprite-symbol-usage" /></svg>